<mxfile host="app.diagrams.net" modified="2021-03-04T17:14:51.295Z" agent="5.0 (Windows NT 10.0; Win64; x64) AppleWebKit/537.36 (KHTML, like Gecko) Chrome/88.0.4324.190 Safari/537.36" etag="9GJbXBrYRbzSj__9BLam" version="14.4.4" type="github">
  <diagram id="HkIq48-F0QVYeAG6iGAL" name="Page-1">
    <mxGraphModel dx="2249" dy="794" grid="1" gridSize="16" guides="1" tooltips="1" connect="1" arrows="1" fold="1" page="1" pageScale="1" pageWidth="827" pageHeight="1169" math="0" shadow="0">
      <root>
        <mxCell id="0" />
        <mxCell id="1" parent="0" />
        <mxCell id="K2AXxi_fzrPYR4Ink1yx-1" value="Catalog" style="swimlane;fontStyle=0;childLayout=stackLayout;horizontal=1;startSize=26;horizontalStack=0;resizeParent=1;resizeParentMax=0;resizeLast=0;collapsible=1;marginBottom=0;align=center;fontSize=14;fillColor=#21C0A5;strokeColor=#006658;fontColor=#5C5C5C;" vertex="1" parent="1">
          <mxGeometry x="-740" y="210" width="160" height="146" as="geometry" />
        </mxCell>
        <mxCell id="K2AXxi_fzrPYR4Ink1yx-2" value="id:ObjectID" style="text;strokeColor=none;fillColor=none;spacingLeft=4;spacingRight=4;overflow=hidden;rotatable=0;points=[[0,0.5],[1,0.5]];portConstraint=eastwest;fontSize=12;fontColor=#5C5C5C;" vertex="1" parent="K2AXxi_fzrPYR4Ink1yx-1">
          <mxGeometry y="26" width="160" height="30" as="geometry" />
        </mxCell>
        <mxCell id="K2AXxi_fzrPYR4Ink1yx-3" value="imageUrl: String&#xa;&#xa;" style="text;strokeColor=none;fillColor=none;spacingLeft=4;spacingRight=4;overflow=hidden;rotatable=0;points=[[0,0.5],[1,0.5]];portConstraint=eastwest;fontSize=12;fontColor=#5C5C5C;" vertex="1" parent="K2AXxi_fzrPYR4Ink1yx-1">
          <mxGeometry y="56" width="160" height="30" as="geometry" />
        </mxCell>
        <mxCell id="K2AXxi_fzrPYR4Ink1yx-6" value="price: Number" style="text;strokeColor=none;fillColor=none;spacingLeft=4;spacingRight=4;overflow=hidden;rotatable=0;points=[[0,0.5],[1,0.5]];portConstraint=eastwest;fontSize=12;fontColor=#5C5C5C;" vertex="1" parent="K2AXxi_fzrPYR4Ink1yx-1">
          <mxGeometry y="86" width="160" height="30" as="geometry" />
        </mxCell>
        <mxCell id="K2AXxi_fzrPYR4Ink1yx-4" value="category: String" style="text;strokeColor=none;fillColor=none;spacingLeft=4;spacingRight=4;overflow=hidden;rotatable=0;points=[[0,0.5],[1,0.5]];portConstraint=eastwest;fontSize=12;fontColor=#5C5C5C;" vertex="1" parent="K2AXxi_fzrPYR4Ink1yx-1">
          <mxGeometry y="116" width="160" height="30" as="geometry" />
        </mxCell>
      </root>
    </mxGraphModel>
  </diagram>
</mxfile>
